# xmcd
#
# Track frame offsets: 
#        150
#        24330
#        47081
#        68268
#        88481
#        109659
#        133215
#        150884
#        171347
#        196245
#        211727
#        232509
#        245766
#        270782
#        292332
#        311175
#        330259
#
# Disc length: 4641 seconds
#
# Revision: 0
# Processed by: cddbd v1.4PL0 Copyright (c) Steve Scherf et al.
# Submitted via: ExactAudioCopy v0.90a11
#
DISCID=e2121f11
DTITLE=Blues Profile - Eric Clapton
DYEAR=1900
DGENRE=
TTITLE0=My Father's Eyes
TTITLE1=Believe in Love
TTITLE2=Blue Eyes Blue
TTITLE3=Got You on My Mind
TTITLE4=Pretending
TTITLE5=Find Myself
TTITLE6=Change the World
TTITLE7=Tears in Heaven
TTITLE8=Breaking Point
TTITLE9=Reptile
TTITLE10=Layla
TTITLE11=I Want a Little Girl
TTITLE12=Running on Faith
TTITLE13=Second Nature
TTITLE14=Come Rain or Come Shine (with B.B.King)
TTITLE15=Travelin' Light
TTITLE16=Before You Accuse Me
EXTD=Grabbed by Andrei Krutsko aka krt - mailto:krt@mail.ru
EXTT0=
EXTT1=
EXTT2=
EXTT3=
EXTT4=
EXTT5=
EXTT6=
EXTT7=
EXTT8=
EXTT9=
EXTT10=
EXTT11=
EXTT12=
EXTT13=
EXTT14=
EXTT15=
EXTT16=
PLAYORDER=
